<svg width="305" height="42" viewBox="0 0 305 42" fill="none" xmlns="http://www.w3.org/2000/svg">
<path fill-rule="evenodd" clip-rule="evenodd" d="M0 0V42H22.5V13.0909H37.7727C44.8939 13.0909 51.0455 11.7727 56.2273 9.13636C60.6635 6.87935 64.2224 3.8339 66.904 0H22.5H14.0455H0ZM83.5 0V42H144.727V23.7273H106V0H83.5ZM167.75 0L153.58 42H177.761L183.885 22.4545H216.034L222.17 42H246.352L232.181 0H208.984L210.668 5.36364H189.24L190.921 0H167.75ZM270.294 0L276.284 10.9091V42H298.648V10.9091L304.638 0H270.294Z" fill="black"/>
</svg>
