<svg width="333" height="52" viewBox="0 0 333 52" fill="none" xmlns="http://www.w3.org/2000/svg">
<path fill-rule="evenodd" clip-rule="evenodd" d="M106.045 51.0909H83.5454V0H106.045V51.0909ZM232.227 51.0909L214.989 0H185.034L167.796 51.0909H190.966L199.625 23.4545H200.352L209.029 51.0909H232.227ZM0.0454102 51.0909V0H38.5C45.4697 0 51.4848 1.36364 56.5454 4.09091C61.6363 6.78788 65.5606 10.5606 68.3181 15.4091C71.0757 20.2273 72.4545 25.8333 72.4545 32.2273C72.4545 38.6515 71.0454 44.2727 68.2272 49.0909C67.8261 49.7799 67.4001 50.4465 66.9494 51.0909H22.5454H14.0909H0.0454102ZM22.5454 46.4545H33.6363C37.0303 46.4545 39.8636 45.8636 42.1363 44.6818C44.4394 43.5 46.1818 41.8485 47.3636 39.7273C48.5454 37.5758 49.1363 35.0758 49.1363 32.2273C49.1363 29.3485 48.5454 26.8636 47.3636 24.7727C46.1818 22.6515 44.4394 21.0152 42.1363 19.8636C39.8333 18.7121 37 18.1364 33.6363 18.1364H22.5454V46.4545ZM304.684 51.0909H270.339L242.284 0H267.42L287.102 38.9545H287.92L307.602 0H332.739L304.684 51.0909Z" fill="black"/>
</svg>
